HIERARCHY
ROOT Pelvis
{
	OFFSET 0.000000 0.000000 0.000000
	CHANNELS 6 Xposition Yposition Zposition Xrotation Yrotation Zrotation
	JOINT LeftUpLeg_virtual
	{
		OFFSET 0.000000 0.000000 0.000000
		CHANNELS 3 Xrotation Yrotation Zrotation
		JOINT LeftUpLeg
		{
			OFFSET 18.735201 -5.666702 -4.541200
			CHANNELS 3 Xrotation Yrotation Zrotation
			JOINT LeftLeg
			{
				OFFSET -0.021200 -31.938179 0.493100
				CHANNELS 3 Xrotation Yrotation Zrotation
				JOINT LeftFoot
				{
					OFFSET 0.021200 -31.938179 -4.336299
					CHANNELS 3 Xrotation Yrotation Zrotation
					JOINT LeftToeBase
					{
						OFFSET 0.943001 -26.722000 15.023500
						CHANNELS 3 Xrotation Yrotation Zrotation
						End Site
						{
							OFFSET 0 0 0
						}
					}
				}
			}
		}
	}
	JOINT RightUpLeg_virtual
	{
		OFFSET 0.000000 0.000000 0.000000
		CHANNELS 3 Xrotation Yrotation Zrotation
		JOINT RightUpLeg
		{
			OFFSET -18.735201 -5.666702 -4.541200
			CHANNELS 3 Xrotation Yrotation Zrotation
			JOINT RightLeg
			{
				OFFSET 0.018946 -31.938133 0.493100
				CHANNELS 3 Xrotation Yrotation Zrotation
				JOINT RightFoot
				{
					OFFSET -0.018946 -31.938126 -4.336299
					CHANNELS 3 Xrotation Yrotation Zrotation
					JOINT RightToeBase
					{
						OFFSET -0.943001 -26.722004 15.023500
						CHANNELS 3 Xrotation Yrotation Zrotation
						End Site
						{
							OFFSET 0 0 0
						}
					}
				}
			}
		}
	}
	JOINT Hips_virtual
	{
		OFFSET 0.000000 0.000000 0.000000
		CHANNELS 3 Xrotation Yrotation Zrotation
		JOINT Hips
		{
			OFFSET -0.000000 -0.000000 -0.000000
			CHANNELS 3 Xrotation Yrotation Zrotation
			JOINT Spine
			{
				OFFSET 0.000000 10.199997 -0.299500
				CHANNELS 3 Xrotation Yrotation Zrotation
				JOINT Spine1
				{
					OFFSET 0.000000 11.900002 -1.516600
					CHANNELS 3 Xrotation Yrotation Zrotation
					JOINT Spine2
					{
						OFFSET 0.000000 13.600006 -2.842500
						CHANNELS 3 Xrotation Yrotation Zrotation
						JOINT Neck_virtual
						{
							OFFSET 0.000000 0.000000 0.000000
							CHANNELS 3 Xrotation Yrotation Zrotation
							JOINT Neck
							{
								OFFSET 0.000000 9.624100 -2.890100
								CHANNELS 3 Xrotation Yrotation Zrotation
								JOINT Head
								{
									OFFSET 0.000000 14.068802 -1.351900
									CHANNELS 3 Xrotation Yrotation Zrotation
									End Site
									{
										OFFSET 0 0 0
									}
								}
							}
						}
						JOINT LeftShoulder_virtual
						{
							OFFSET 0.000000 0.000000 0.000000
							CHANNELS 3 Xrotation Yrotation Zrotation
							JOINT LeftShoulder
							{
								OFFSET 15.263000 10.923401 -0.547700
								CHANNELS 3 Xrotation Yrotation Zrotation
								JOINT LeftArm
								{
									OFFSET 25.438599 -2.830597 -13.032500
									CHANNELS 3 Xrotation Yrotation Zrotation
									JOINT LeftForeArm
									{
										OFFSET 29.960503 0.000000 0.000000
										CHANNELS 3 Xrotation Yrotation Zrotation
										JOINT LeftHand
										{
											OFFSET 27.849251 0.000000 0.000000
											CHANNELS 3 Xrotation Yrotation Zrotation
											End Site
											{
												OFFSET 0 0 0
											}
										}
									}
								}
							}
						}
						JOINT RightShoulder_virtual
						{
							OFFSET 0.000000 0.000000 0.000000
							CHANNELS 3 Xrotation Yrotation Zrotation
							JOINT RightShoulder
							{
								OFFSET -15.263000 10.923401 -0.547700
								CHANNELS 3 Xrotation Yrotation Zrotation
								JOINT RightArm
								{
									OFFSET -25.438599 -2.830597 -13.032500
									CHANNELS 3 Xrotation Yrotation Zrotation
									JOINT RightForeArm
									{
										OFFSET -29.960503 0.000000 0.000000
										CHANNELS 3 Xrotation Yrotation Zrotation
										JOINT RightHand
										{
											OFFSET -27.849251 0.000000 0.000000
											CHANNELS 3 Xrotation Yrotation Zrotation
											End Site
											{
												OFFSET 0 0 0
											}
										}
									}
								}
							}
						}
					}
				}
			}
		}
	}
}
MOTION
Frames: 5
Frame Time: 0.03333333
2.253642 92.745468 -0.033173 0.000000 0.000000 0.000000 11.893519 -19.214347 0.297045 -24.904005 7.284822 13.684316 33.359662 3.502398 -2.915679 -14.500796 5.032130 -7.387522 0.000000 0.000000 0.000000 9.009768 0.399042 -0.072934 -17.347417 -5.363385 -14.524577 26.784718 -2.316879 0.699292 -20.255740 -7.049975 10.760342 0.000000 0.000000 0.000000 0.614221 -1.289317 0.439319 1.400038 3.467694 -0.096735 6.116504 0.050117 0.890140 2.024798 0.143663 0.248720 0.000000 0.000000 0.000000 2.439750 0.024851 0.326539 -0.917616 0.020901 0.021623 0.000000 0.000000 0.000000 3.158821 1.511682 -0.749500 1.411492 0.243334 -10.151380 4.635139 -3.094706 -52.247710 3.782660 -32.499973 -3.419627 0.000000 0.000000 0.000000 3.625545 -1.494665 1.312494 1.611725 0.020881 10.825786 4.676438 5.089428 51.546167 4.517375 45.266235 2.286275 0.000000 0.000000 0.000000 
1.945890 92.641556 -0.119684 0.000000 0.000000 0.000000 12.460912 -21.392166 0.631481 -23.970549 6.757466 13.458774 31.970319 3.534271 -3.232098 -15.723307 5.257532 -7.913334 0.000000 0.000000 0.000000 8.788631 0.222196 0.329666 -17.803984 -5.473660 -14.158234 26.081250 -3.027818 0.734574 -21.086602 -7.812073 10.326811 0.000000 0.000000 0.000000 -0.326972 -2.276990 -0.370894 4.612865 2.827754 -0.645568 5.545773 -0.424499 0.665763 1.750560 0.165852 0.487370 0.000000 0.000000 0.000000 2.425963 -0.028656 0.098974 -0.867412 0.059835 0.035215 0.000000 0.000000 0.000000 2.328583 1.358289 -0.850259 1.756279 0.585436 -11.127611 4.778032 -2.385099 -54.053793 4.505544 -32.577362 -3.410136 0.000000 0.000000 0.000000 3.314138 -1.397556 1.180290 1.922635 0.087201 11.389953 4.498036 4.964185 51.422343 3.764193 47.513736 2.743184 0.000000 0.000000 0.000000 
2.052694 92.570984 0.825460 0.000000 0.000000 0.000000 13.164636 -22.666249 0.567261 -22.671138 6.587363 12.849396 30.612911 3.619832 -3.317388 -16.688027 5.453465 -8.067336 0.000000 0.000000 0.000000 8.386946 0.143843 0.148446 -18.372587 -5.361795 -14.398194 25.285683 -3.349859 1.089948 -21.662582 -8.353215 10.654884 0.000000 0.000000 0.000000 0.891790 -1.965807 0.396238 3.478552 3.451679 -1.350763 6.426862 -0.989139 0.043124 1.214583 -0.107227 0.652680 0.000000 0.000000 0.000000 2.660793 -0.279111 -0.002032 -0.865505 -0.016243 -0.011497 0.000000 0.000000 0.000000 1.848007 1.567591 -0.880242 1.461584 0.112572 -11.981818 3.131089 -1.873169 -53.374875 4.428654 -31.862942 -2.752973 0.000000 0.000000 0.000000 3.272823 -1.470687 1.022636 2.452694 -1.127043 11.417539 4.701740 4.099986 52.317541 2.994136 46.577160 3.132808 0.000000 0.000000 0.000000 
2.574149 92.301941 -0.122257 0.000000 0.000000 0.000000 13.589471 -21.411625 0.893762 -22.261618 6.911594 13.407131 30.905759 2.986891 -3.595185 -16.419121 4.974586 -8.895492 0.000000 0.000000 0.000000 9.349599 2.339336 0.128774 -16.840468 -4.943315 -14.048945 26.167677 -3.667115 1.119133 -20.882617 -8.619604 10.497598 0.000000 0.000000 0.000000 0.271289 -0.678085 -0.286248 6.386027 4.534064 -2.849025 5.631504 -1.301594 0.238327 1.416909 0.208497 0.157196 0.000000 0.000000 0.000000 2.560336 -0.341642 -0.042221 -0.967613 -0.033744 -0.008513 0.000000 0.000000 0.000000 2.350968 1.349151 -1.188447 1.355084 0.402188 -12.268776 2.836813 -3.397260 -54.049257 4.101551 -33.506418 -2.884950 0.000000 0.000000 0.000000 3.404136 -1.396017 0.896084 2.166086 -1.217207 12.375165 4.268602 3.602399 51.958608 2.881476 47.387586 3.177953 0.000000 0.000000 0.000000 
3.126780 92.340057 -0.006083 0.000000 0.000000 0.000000 13.533895 -22.092165 1.075977 -22.427995 6.679599 13.528954 30.521793 3.132250 -3.527409 -16.639799 5.100639 -8.735528 0.000000 0.000000 0.000000 9.394528 3.750183 0.077252 -16.839372 -4.581683 -13.931515 25.925943 -3.490429 1.381483 -21.206095 -8.590241 10.997313 0.000000 0.000000 0.000000 1.966344 -0.143885 -0.281695 5.509070 3.150403 -1.811271 6.309348 -1.113427 -0.388484 0.889082 0.095445 0.311161 0.000000 0.000000 0.000000 2.723664 -0.438980 -0.150416 -1.192705 0.035400 -0.037730 0.000000 0.000000 0.000000 2.181518 1.116571 -1.180118 1.119434 0.954133 -12.835980 2.666763 -2.911698 -53.144517 3.712653 -33.893530 -2.801438 0.000000 0.000000 0.000000 3.238061 -1.420767 1.076608 2.376139 -0.828236 12.473045 4.693646 1.823185 52.073933 1.916582 48.221484 3.958779 0.000000 0.000000 0.000000 
